<svg width="49" height="49" xmlns="http://www.w3.org/2000/svg" xmlns:xlink="http://www.w3.org/1999/xlink" xml:space="preserve" overflow="hidden"><g transform="translate(-389 -301)"><g><g><g><g><path d="M399 341 429 341 429 311 399 311 399 341ZM436 315 436 313 431 313 431 310C431 309.448 430.552 309 430 309L427 309 427 304 425 304 425 309 421 309 421 304 419 304 419 309 415 309 415 304 413 304 413 309 409 309 409 304 407 304 407 309 403 309 403 304 401 304 401 309 398 309C397.448 309 397 309.448 397 310L397 313 392 313 392 315 397 315 397 319 392 319 392 321 397 321 397 325 392 325 392 327 397 327 397 331 392 331 392 333 397 333 397 337 392 337 392 339 397 339 397 342C397 342.552 397.448 343 398 343L401 343 401 348 403 348 403 343 407 343 407 348 409 348 409 343 413 343 413 348 415 348 415 343 419 343 419 348 421 348 421 343 425 343 425 348 427 348 427 343 430 343C430.552 343 431 342.552 431 342L431 339 436 339 436 337 431 337 431 333 436 333 436 331 431 331 431 327 436 327 436 325 431 325 431 321 436 321 436 319 431 319 431 315 436 315ZM420.564 325.29C420.858 324.894 421.318 324.695 421.943 324.695 422.522 324.695 423.049 324.863 423.525 325.199L423.525 329.049C423.002 329.404 422.466 329.581 421.916 329.581 420.721 329.581 420.124 328.76 420.124 327.117 420.124 326.296 420.271 325.687 420.564 325.29ZM421.397 330.883C422.228 330.883 422.96 330.603 423.595 330.043L423.763 330.729 425.177 330.729 425.177 320.369 423.525 320.369 423.525 324.121C422.909 323.636 422.228 323.393 421.481 323.393 420.856 323.393 420.314 323.554 419.857 323.876 419.4 324.198 419.05 324.644 418.807 325.213 418.564 325.782 418.443 326.44 418.443 327.187 418.443 328.316 418.711 329.215 419.249 329.882 419.785 330.549 420.501 330.883 421.397 330.883ZM411.919 327.397 414.845 323.127 414.845 327.397 411.919 327.397ZM414.845 330.729 416.511 330.729 416.511 328.713 417.813 328.713 417.813 327.397 416.511 327.397 416.511 321.027 414.775 321.027 410.253 327.467 410.253 328.713 414.845 328.713 414.845 330.729ZM404.527 322.343 406.241 322.343C406.766 322.343 407.163 322.488 407.43 322.777 407.698 323.066 407.832 323.491 407.832 324.051 407.832 324.611 407.698 325.036 407.43 325.325 407.163 325.614 406.766 325.759 406.241 325.759L404.527 325.759 404.527 322.343ZM404.527 327.075 406.443 327.075C407.406 327.075 408.167 326.804 408.728 326.263 409.288 325.722 409.567 324.984 409.567 324.051 409.567 323.118 409.285 322.38 408.72 321.839 408.156 321.298 407.388 321.027 406.417 321.027L402.819 321.027 402.819 330.729 404.527 330.729 404.527 327.075Z" fill="#FF9900" fill-rule="evenodd" fill-opacity="1"/></g></g></g></g></g></svg>