<svg width="49" height="48" xmlns="http://www.w3.org/2000/svg" xmlns:xlink="http://www.w3.org/1999/xlink" xml:space="preserve" overflow="hidden"><g transform="translate(-773 -408)"><g><g><g><g><path d="M776 435.63 784.815 435.63 784.815 433.63 776 433.63 776 435.63ZM776 429.46 786.578 429.46 786.578 427.46 776 427.46 776 429.46ZM776 423.289 788.341 423.289 788.341 421.289 776 421.289 776 423.289ZM808.715 433.63 794.91 433.63 796.174 428.578 809.979 428.578 808.715 433.63ZM794.611 426.578 792.35 435.63 810.277 435.63 812.539 426.578 794.611 426.578ZM812.279 444.773C812.24 444.956 812.076 445.089 811.889 445.089L787.424 445.089C787.258 445.089 787.158 444.996 787.113 444.941 787.069 444.886 786.999 444.769 787.033 444.607L791.566 423.24 816.846 423.24 812.279 444.773ZM793 418 817.466 418C817.631 418 817.731 418.093 817.776 418.148 817.82 418.203 817.891 418.319 817.856 418.483L817.271 421.24 791.99 421.24 792.611 418.317C792.65 418.133 792.813 418 793 418ZM819.329 416.889C818.872 416.324 818.193 416 817.466 416L793 416C791.873 416 790.887 416.8 790.653 417.902L785.076 444.193C784.926 444.903 785.102 445.635 785.56 446.2 786.017 446.765 786.696 447.089 787.424 447.089L811.889 447.089C813.015 447.089 814.001 446.29 814.236 445.188L819.813 418.897C819.963 418.186 819.787 417.453 819.329 416.889Z" fill="#FF4F8B" fill-rule="evenodd" fill-opacity="1"/></g></g></g></g></g></svg>