<svg xmlns="http://www.w3.org/2000/svg" xmlns:xlink="http://www.w3.org/1999/xlink" width="360" height="360" viewBox="0 0 360 360">
  <defs>
    <filter id="Ellipse_2" x="0" y="0" width="360" height="360" filterUnits="userSpaceOnUse">
      <feOffset dy="1" input="SourceAlpha"/>
      <feGaussianBlur stdDeviation="3" result="blur"/>
      <feFlood flood-opacity="0.349"/>
      <feComposite operator="in" in2="blur"/>
      <feComposite in="SourceGraphic"/>
    </filter>
  </defs>
  <g id="singularity-logo" transform="translate(-3757.012 -1045.683)">
    <g transform="matrix(1, 0, 0, 1, 3757.01, 1045.68)" filter="url(#Ellipse_2)">
      <circle id="Ellipse_2-2" data-name="Ellipse 2" cx="171" cy="171" r="171" transform="translate(9 8)" fill="#fff"/>
    </g>
    <g id="Group_50" data-name="Group 50" transform="translate(0 0.673)">
      <path id="Path_135" data-name="Path 135" d="M3936.318,1066.01c-85.064.255-153.98,70.708-154.306,157.708h31.851c.326-68.779,55-124.451,122.454-124.621Z" fill="#21a1da"/>
      <path id="Path_136" data-name="Path 136" d="M4304,1066.473v33.133c64.438,3.591,115.645,57.874,115.96,124.432h32.161C4451.8,1139.156,4386.194,1070.027,4304,1066.473Z" transform="translate(-360.57 -0.32)" fill="#8ac13f"/>
      <path id="Path_137" data-name="Path 137" d="M3936.629,1718.436c-65.424-.165-118.82-52.535-122.278-118.436h-31.888c3.477,84.13,71.128,151.274,154.166,151.523Z" transform="translate(-0.311 -368.86)" fill="#bcbdc0"/>
      <path id="Path_138" data-name="Path 138" d="M4419.784,1600c-3.343,63.707-53.354,114.768-115.784,118.247v33.133c80.189-3.467,144.591-69.348,147.981-151.38Z" transform="translate(-360.57 -368.86)" fill="#f3931e"/>
      <path id="Path_139" data-name="Path 139" d="M4140.016,1369.155s-7.421-2.783-18.554-7.422c-14.843-6.185-12.06-12.679-12.06-12.679s3.092-10.823,21.337-7.112c19.036,3.872,33.088,23.811,33.088,23.811l18.245-52.261c-28.141-11.442-70.365-11.985-88.442-10.2-40.819,4.02-57.827,28.078-57.827,52.416,0,18.634,6.8,32.315,22.72,41.011,18.942,11.825,36.179,12.8,40.982,21.61,6.36,11.661-8.658,13.916-8.658,13.916-24.739,1.855-43.912-25.667-43.912-25.667L4029,1461.308c69.578,23.5,117.51,7.422,117.51,7.422,21.956-7.422,38.964-22.574,38.964-48.241C4185.474,1395.212,4170.94,1380.288,4140.016,1369.155Z" transform="translate(-170.61 -163.373)" fill="#1d315f"/>
    </g>
  </g>
</svg>
