<?xml version="1.0" encoding="utf-8" standalone="yes"?>
<!DOCTYPE svg PUBLIC "-//W3C//DTD SVG 1.1//EN" "http://www.w3.org/Graphics/SVG/1.1/DTD/svg11.dtd">
<svg xmlns="http://www.w3.org/2000/svg" xmlns:xlink="http://www.w3.org/1999/xlink" xmlns:dc="http://purl.org/dc/elements/1.1/" xmlns:cc="http://web.resource.org/cc/" xmlns:rdf="http://www.w3.org/1999/02/22-rdf-syntax-ns#" xmlns:sodipodi="http://sodipodi.sourceforge.net/DTD/sodipodi-0.dtd" xmlns:inkscape="http://www.inkscape.org/namespaces/inkscape" version="1.1" baseProfile="full" width="750px" height="75px" viewBox="0 0 750 75" preserveAspectRatio="xMidYMid meet" id="svg_document" style="zoom: 1;"><!-- Created with macSVG - https://macsvg.org/ - https://github.com/dsward2/macsvg/ --><title id="svg_document_title">Untitled.svg</title><defs id="svg_document_defs"></defs><g id="main_group"><text id="sample_text_element" style="outline-style:none;" xml:space="preserve" x="418px" text-rendering="geometricPrecision" font-family="AppleSDGothicNeo-Bold" y="54.5px" fill="black" font-size="50px" transform="" text-anchor="middle">AWS ParallelCluster Manager
</text></g><svg xmlns="http://www.w3.org/2000/svg" viewBox="0 0 75 75" id="svg1" width="75" height="75"><title>Product-Name_dark-bg</title><g id="Categories_and_Colors" data-name="Categories and Colors"><rect x="0px" style="fill:#f90" height="75" id="Orange_Dark_BG" y="0px" width="75" data-name="Orange Dark BG"></rect></g><g id="Guides"><rect x="5" y="5" width="65" height="65" style="fill:none"></rect><path d="M47.49,48.6a1,1,0,0,1-.43-.1c-4.17-2-7.25-5.55-10.24-9s-6-6.87-9.82-8.42a1,1,0,0,1-.55-1.3,1,1,0,0,1,1.3-.56c4.3,1.74,7.5,5.41,10.58,9,2.85,3.28,5.8,6.68,9.6,8.5a1,1,0,0,1-.44,1.9Z" style="fill:#232f3e"></path><path d="M22.3,50.12a11.83,11.83,0,0,1-9.78-4.65,11.21,11.21,0,0,1-1.85-9.84,1,1,0,1,1,1.91.57,9.31,9.31,0,0,0,1.54,8.07,9.87,9.87,0,0,0,8.18,3.85c6.67,0,10.46-4.43,14.47-9.13,4.54-5.31,9.23-10.8,18.34-10.8a10.32,10.32,0,0,1,8.49,3.95,11.62,11.62,0,0,1,1.71,10,1,1,0,0,1-1.92-.55A9.57,9.57,0,0,0,62,33.35a8.22,8.22,0,0,0-6.89-3.16c-8.19,0-12.38,4.91-16.82,10.1C34.16,45.13,29.89,50.12,22.3,50.12Z" style="fill:#232f3e"></path><path d="M23,32H13a1,1,0,0,1-1-1V21a1,1,0,0,1,1-1h3a1,1,0,0,1,0,2H14v8h8V29a1,1,0,0,1,2,0v2A1,1,0,0,1,23,32Z" style="fill:#232f3e"></path><path d="M30,26H20a1,1,0,0,1-1-1V15a1,1,0,0,1,1-1H30a1,1,0,0,1,1,1V25A1,1,0,0,1,30,26Zm-9-2h8V16H21Z" style="fill:#232f3e"></path><path d="M62,56H60a1,1,0,0,1,0-2h1V46H53v2a1,1,0,0,1-2,0V45a1,1,0,0,1,1-1H62a1,1,0,0,1,1,1V55A1,1,0,0,1,62,56Z" style="fill:#232f3e"></path><path d="M56,62H46a1,1,0,0,1-1-1V51a1,1,0,0,1,1-1H56a1,1,0,0,1,1,1V61A1,1,0,0,1,56,62Zm-9-2h8V52H47Z" style="fill:#232f3e"></path></g></svg></svg>